<svg version="1.1" id="Layer_1" xmlns="http://www.w3.org/2000/svg" xmlns:xlink="http://www.w3.org/1999/xlink" x="0px" y="0px"
	 width="100%" viewBox="0 0 750 750" enable-background="new 0 0 750 750" xml:space="preserve">
<path fill="#141718" opacity="1.000000" stroke="none" 
	d="
M1.000000,598.000000 
	C1.000000,450.309265 1.000000,302.618500 1.395614,154.304916 
	C3.091322,146.022858 3.977925,138.264954 5.777300,130.724899 
	C9.562565,114.863228 15.680553,99.882988 24.003012,85.813126 
	C35.333988,66.657097 49.538677,49.929058 67.212326,36.453972 
	C88.469444,20.246706 112.144943,8.964535 138.599106,3.983850 
	C143.737854,3.016348 148.866623,1.995981 154.000000,1.000000 
	C301.690765,1.000000 449.381500,1.000000 597.695068,1.395606 
	C605.977173,3.091329 613.735046,3.978004 621.275146,5.777373 
	C637.136841,9.562583 652.117126,15.680495 666.186951,24.003006 
	C685.342896,35.334076 702.071045,49.538696 715.546082,67.212425 
	C731.753296,88.469551 743.035461,112.144989 748.016235,138.599136 
	C748.983643,143.737869 750.004089,148.866638 751.000000,154.000000 
	C751.000000,301.690765 751.000000,449.381500 750.604370,597.695068 
	C748.908630,605.977112 748.022034,613.735107 746.222595,621.275146 
	C742.437195,637.136780 736.319458,652.117065 727.996948,666.187012 
	C716.665955,685.343018 702.461365,702.071045 684.787659,715.546082 
	C663.530579,731.753357 639.854980,743.035522 613.400818,748.016174 
	C608.262085,748.983643 603.133362,750.004028 598.000000,751.000000 
	C450.309265,751.000000 302.618500,751.000000 154.305405,750.604736 
	C146.022461,748.908081 138.263412,748.019409 130.721741,746.219727 
	C114.860527,742.434753 99.879158,736.320374 85.810608,727.996399 
	C66.656723,716.663513 49.927166,702.460938 36.452827,684.786499 
	C20.246832,663.528931 8.964382,639.854309 3.983831,613.400635 
	C3.016352,608.261963 1.995977,603.133301 1.000000,598.000000 
M201.725204,420.652466 
	C184.540375,416.927734 169.569260,422.915009 155.286285,431.736115 
	C152.248016,422.204437 152.248016,422.204437 143.233963,422.270844 
	C136.906693,422.317474 136.282883,422.930511 136.278229,429.606323 
	C136.260071,455.605347 136.236343,481.604431 136.284637,507.603363 
	C136.310623,521.589417 134.677200,520.767090 149.489990,520.714905 
	C155.499100,520.693726 156.109543,520.041687 156.111893,514.207825 
	C156.120850,492.041992 156.177628,469.875793 156.043411,447.710754 
	C156.024918,444.658417 156.666260,442.463409 159.684540,441.596863 
	C167.443054,439.369324 175.119080,436.220093 183.039261,435.340210 
	C194.653336,434.049957 199.835999,439.316833 200.789032,451.028259 
	C200.910370,452.519562 200.880447,454.025055 200.880920,455.523987 
	C200.886505,473.190002 200.765976,490.857056 200.925323,508.521637 
	C201.035126,520.693909 197.959717,520.851379 213.323715,520.728210 
	C220.082352,520.674072 220.723434,520.057129 220.723511,513.295410 
	C220.723816,490.963379 220.664825,468.631134 220.773132,446.299713 
	C220.779465,444.992340 221.782852,442.857483 222.794312,442.519196 
	C230.758575,439.855713 238.697266,436.377472 246.914444,435.380585 
	C259.398499,433.866028 264.959473,439.858459 264.984650,452.554993 
	C265.020660,470.720886 264.900818,488.887573 265.023224,507.052734 
	C265.121735,521.671143 262.315704,520.802979 279.666016,520.721191 
	C279.832458,520.720398 279.998840,520.709473 280.165222,520.701721 
	C283.590210,520.543518 285.084686,518.977783 285.065765,515.329651 
	C284.947327,492.497803 285.133911,469.664032 284.958710,446.832916 
	C284.850006,432.667603 277.772003,422.816071 265.228912,420.499451 
	C259.006653,419.350189 252.051346,419.136688 246.010803,420.721924 
	C236.061661,423.332855 226.586044,427.748291 216.527145,431.548004 
	C213.806351,426.895233 209.237015,422.505890 201.725204,420.652466 
M270.879425,240.562210 
	C266.699249,233.035065 260.499695,229.305603 251.698700,229.628021 
	C243.054398,229.944687 237.257889,234.314987 233.125092,242.322052 
	C232.009094,230.722931 232.009262,230.726288 221.144928,231.248947 
	C220.147171,231.296951 219.131653,231.376831 218.148270,231.252731 
	C213.893265,230.715729 212.773346,232.661957 212.806366,236.736328 
	C212.976517,257.731842 212.885284,278.729492 212.885284,299.726379 
	C212.885284,314.090851 212.886917,313.938141 227.363388,314.092621 
	C232.095932,314.143097 233.894241,312.675659 233.811661,307.800385 
	C233.574615,293.806458 233.617661,279.804443 233.801407,265.808960 
	C233.850906,262.038971 234.334824,258.137939 235.448761,254.554916 
	C236.712509,250.490021 240.058945,248.788712 244.443832,248.961090 
	C248.777786,249.131485 251.329514,251.391663 252.220016,255.342987 
	C252.906952,258.391083 253.205887,261.583618 253.227295,264.714996 
	C253.327530,279.378815 253.360245,294.044586 253.212036,308.707581 
	C253.173264,312.541809 254.413391,314.284882 258.384766,314.046295 
	C261.705597,313.846771 265.061218,313.817780 268.377502,314.052032 
	C272.702393,314.357544 274.253540,312.669678 274.191650,308.279938 
	C273.987366,293.784973 274.037140,279.284607 274.176331,264.788055 
	C274.206268,261.671661 274.624084,258.437256 275.563721,255.479767 
	C276.992920,250.981354 281.558136,248.533539 286.235535,249.101883 
	C291.054047,249.687393 292.988434,252.938080 293.586060,257.250610 
	C293.881805,259.384399 293.870483,261.570740 293.873627,263.733459 
	C293.895721,278.897858 293.961395,294.062958 293.826965,309.226196 
	C293.796844,312.625275 294.887115,314.153412 298.368530,314.036041 
	C302.363434,313.901306 306.409180,314.336761 310.343445,313.830109 
	C311.802795,313.642181 314.135620,311.507874 314.160919,310.223633 
	C314.537628,291.075958 314.685028,271.921936 314.687836,252.769440 
	C314.689240,243.114273 311.511383,235.072678 301.804169,231.135590 
	C290.567505,226.578156 279.874756,230.838913 272.334198,242.832489 
	C271.909546,242.272354 271.513580,241.750046 270.879425,240.562210 
M376.325989,424.997162 
	C376.115143,427.130310 375.725616,429.263092 375.721069,431.396667 
	C375.675568,452.728363 375.602905,474.060913 375.783722,495.391174 
	C375.813385,498.890686 374.877777,501.059052 371.617371,502.257202 
	C366.032532,504.309509 360.629242,507.342865 354.869080,508.335266 
	C340.482513,510.813873 329.743042,508.514252 329.965210,488.418945 
	C330.153168,471.422272 330.081116,454.421387 329.981384,437.423218 
	C329.889038,421.682800 332.241638,423.924377 315.633392,423.657959 
	C311.840820,423.597107 310.214996,425.014069 310.230652,428.921875 
	C310.320801,451.419861 310.063354,473.921021 310.341248,496.415924 
	C310.567444,514.725891 321.003174,524.966492 339.173981,524.572693 
	C345.546295,524.434631 352.113220,523.237366 358.168457,521.241211 
	C364.639954,519.107788 370.612213,515.459961 376.789124,512.479614 
	C379.708557,522.612793 379.708557,522.612671 390.175201,522.004456 
	C390.341400,521.994751 390.508514,522.003601 390.675049,521.998291 
	C393.662262,521.903381 395.158630,520.622742 395.151276,517.372498 
	C395.083862,487.541473 395.161682,457.709900 394.954224,427.880188 
	C394.944519,426.487671 392.706329,424.008972 391.386017,423.925049 
	C386.617371,423.622009 381.797363,424.127289 376.325989,424.997162 
M561.869690,231.269608 
	C558.876709,231.155304 556.206848,231.093246 556.223999,235.451904 
	C556.320862,260.099640 556.299255,284.748016 556.238281,309.395966 
	C556.229614,312.886353 557.793030,314.161804 561.117737,314.034546 
	C564.443665,313.907257 567.778320,314.014801 571.109131,314.005188 
	C577.266968,313.987396 577.716614,313.572479 577.724792,307.566772 
	C577.742859,294.243500 577.525330,280.915222 577.847046,267.599670 
	C577.952881,263.218567 578.881653,258.668152 580.417969,254.563400 
	C581.992188,250.357422 585.707458,248.306412 590.461975,248.885544 
	C595.246521,249.468338 597.165833,252.762421 597.918274,256.980865 
	C598.353516,259.420990 598.642883,261.922028 598.653992,264.397156 
	C598.720459,279.219025 598.714661,294.041443 598.662048,308.863434 
	C598.652344,311.603394 598.833618,313.987305 602.397827,313.998047 
	C607.060852,314.012085 611.750732,314.268982 616.370178,313.818237 
	C617.686646,313.689758 619.851929,311.463226 619.847534,310.205109 
	C619.774414,289.575897 619.759583,268.934540 618.970825,248.325012 
	C618.596741,238.549622 612.020935,231.798401 603.355225,230.051849 
	C592.605774,227.885361 584.203491,231.406937 578.981995,240.277481 
	C578.434570,241.207428 577.934509,242.165207 576.911072,244.017502 
	C576.563904,242.391098 576.367615,241.831635 576.334534,241.262695 
	C575.706909,230.466187 575.710999,230.468231 564.787048,231.249939 
	C564.124023,231.297394 563.455200,231.264816 561.869690,231.269608 
M383.498901,234.882904 
	C369.758698,227.758270 355.989960,228.223358 342.413757,235.142853 
	C336.511322,238.151215 332.960022,243.379898 331.096069,249.713165 
	C330.080078,253.165192 330.608704,255.573837 334.949615,255.763962 
	C338.099792,255.901932 341.262787,256.224609 344.368622,256.762115 
	C347.458069,257.296753 349.183899,256.698212 350.277496,253.311066 
	C352.152893,247.502426 357.685913,244.681549 363.705902,245.742981 
	C370.791809,246.992340 373.287750,252.158600 371.356079,261.709625 
	C367.599762,262.118591 363.800140,262.433777 360.030426,262.962311 
	C350.930664,264.238190 341.885864,265.702911 334.998932,272.707062 
	C328.019867,279.804932 325.897339,291.492462 329.892303,300.998230 
	C333.445587,309.452881 340.557129,313.213013 351.773865,313.378967 
	C361.053131,313.516235 368.394348,309.655884 374.803925,303.173157 
	C376.900482,305.693665 378.640717,307.876160 380.477905,309.973694 
	C383.374084,313.280243 386.237579,313.984772 389.586700,310.280304 
	C391.687561,307.956543 394.245117,305.984406 396.816284,304.162964 
	C399.873779,301.996979 399.946655,299.750854 397.666016,297.093231 
	C394.120728,292.962036 392.943848,288.183655 393.047394,282.772064 
	C393.238525,272.782959 393.162445,262.783966 392.964233,252.793701 
	C392.822052,245.626877 390.286621,239.486862 383.498901,234.882904 
M172.234146,308.857025 
	C174.562607,307.025330 176.891083,305.193604 179.135162,303.428284 
	C181.385605,306.009735 183.425797,308.396912 185.517914,310.737671 
	C187.985748,313.498779 190.391525,313.570068 193.126190,310.871552 
	C195.604767,308.425751 198.290146,306.136475 201.128815,304.122833 
	C204.235870,301.918793 204.145889,299.797058 201.859268,297.134644 
	C198.211197,292.887054 196.983643,287.878967 197.070053,282.328552 
	C197.222916,272.510834 197.202698,262.687958 197.086121,252.869247 
	C196.964691,242.642090 192.192551,235.947495 182.596680,232.443542 
	C173.568680,229.146927 164.397079,229.170639 155.162903,231.602386 
	C145.321808,234.193924 138.265579,239.789291 135.228012,249.824707 
	C134.236649,253.099945 134.661911,255.362457 138.706940,255.692261 
	C142.515350,256.002747 146.307785,256.779053 150.107422,256.780304 
	C151.435486,256.780762 153.652313,255.304123 153.946060,254.124298 
	C155.650024,247.280548 163.409805,244.080734 169.944580,246.169113 
	C175.439285,247.925125 177.525146,253.850998 175.486557,261.722504 
	C171.568054,262.140320 167.599808,262.441193 163.669861,263.007690 
	C155.250351,264.221405 146.844894,265.613678 140.248718,271.707306 
	C132.337662,279.015656 130.737427,288.189911 133.136871,298.181488 
	C135.059692,306.188293 140.490768,311.288330 148.505280,312.732300 
	C156.445908,314.162933 164.423447,313.873230 172.234146,308.857025 
M443.265564,419.825928 
	C438.180450,421.240875 432.777954,421.989258 428.083496,424.224640 
	C420.770477,427.707001 415.553101,433.499786 413.922546,441.830841 
	C410.910950,457.218231 417.928833,468.686340 434.179077,475.042755 
	C442.365143,478.244843 450.597565,481.337738 458.703156,484.732819 
	C463.793732,486.864990 466.482483,490.776550 465.968170,496.557831 
	C465.452118,502.358551 462.342133,506.454987 456.923340,507.807343 
	C452.020844,509.030914 446.711426,509.770111 441.728912,509.265686 
	C433.686493,508.451538 425.777466,506.369690 417.782501,504.995483 
	C416.157715,504.716217 413.803101,504.548950 412.820068,505.454163 
	C409.992859,508.057434 412.405396,517.689026 416.128784,519.181824 
	C430.893829,525.101624 446.134064,526.676392 461.578003,522.720032 
	C474.700470,519.358337 483.364716,509.274780 484.080017,497.763031 
	C484.994293,483.048798 479.949341,475.228729 465.401337,468.913757 
	C462.816895,467.791901 460.148071,466.866119 457.541260,465.793732 
	C451.099731,463.143860 444.502777,460.791992 438.319305,457.633209 
	C435.763519,456.327576 433.196655,453.600464 432.210052,450.936462 
	C429.233124,442.898529 434.561554,435.420898 444.282562,435.289856 
	C453.464081,435.166107 462.664917,437.052826 471.872955,437.880768 
	C473.977386,438.069946 477.113373,438.362579 478.105103,437.192505 
	C481.149506,433.600800 478.026520,425.406830 473.526367,423.691895 
	C464.034637,420.074829 454.198120,419.130920 443.265564,419.825928 
M505.936615,313.726105 
	C519.928467,314.759247 530.934753,309.384399 537.454407,297.061432 
	C546.572449,279.827179 546.071777,262.056305 536.805420,245.033813 
	C530.686584,233.793304 520.311646,229.116364 507.571259,229.700790 
	C495.302643,230.263565 486.644318,236.323502 481.046509,247.067993 
	C475.769592,257.196564 475.018890,268.110077 476.072327,279.141266 
	C477.917328,298.460632 488.260254,310.514557 505.936615,313.726105 
M319.927643,354.857819 
	C309.349152,353.768585 298.692688,353.168549 288.207123,351.496613 
	C259.137817,346.861511 231.559448,337.625824 205.614944,323.594513 
	C204.204865,322.831940 202.124100,323.309479 200.355530,323.209778 
	C201.218628,324.781525 201.698349,326.869965 203.007141,327.841003 
	C211.407928,334.073975 219.593781,340.737610 228.581345,346.014618 
	C269.766998,370.196625 314.191132,377.617554 361.117981,369.800812 
	C385.577087,365.726562 408.682800,357.631470 429.454681,343.690155 
	C431.634003,342.227417 434.752106,340.416046 432.660522,337.571259 
	C431.686249,336.246094 427.732727,335.943390 425.725983,336.719360 
	C391.964447,349.773468 357.052979,355.945312 319.927643,354.857819 
M579.492065,438.785461 
	C581.212158,438.188751 582.894287,437.425995 584.658630,437.023163 
	C593.930115,434.906219 603.112305,435.435364 612.307922,437.776398 
	C614.280396,438.278595 617.581177,438.313202 618.547729,437.141937 
	C621.667542,433.361084 618.352722,424.480072 613.732300,422.780457 
	C604.302307,419.311584 594.513123,418.866150 584.731506,420.027130 
	C566.093872,422.239258 552.810974,431.741333 546.895752,450.011505 
	C542.154724,464.655121 542.304199,479.557495 546.563293,494.262024 
	C550.823120,508.969269 560.583740,518.623840 575.417419,522.588745 
	C587.193115,525.736267 599.113159,525.713745 610.894470,522.288879 
	C620.079041,519.618958 620.964661,518.168823 620.018982,508.851837 
	C619.722107,505.927582 618.596008,504.753876 615.445557,505.453430 
	C609.940857,506.675812 604.388123,508.185944 598.802612,508.447601 
	C580.497681,509.305023 568.929443,503.112640 565.574280,485.751190 
	C563.595581,475.512146 563.796143,465.193176 566.362427,455.074585 
	C568.142151,448.057556 571.978210,442.325806 579.492065,438.785461 
M426.938019,308.186340 
	C436.965820,306.319366 446.807007,307.145020 456.416595,310.453033 
	C467.428528,314.243835 467.198364,314.300964 467.403290,302.578644 
	C467.489594,297.643158 465.785889,294.440430 461.127106,293.249634 
	C453.348663,291.261536 445.490723,289.584412 437.505402,287.739197 
	C445.304565,276.692047 453.385162,264.967407 461.792908,253.482269 
	C464.906860,249.228546 466.309479,244.904480 466.127960,239.627090 
	C465.984589,235.459854 464.970795,233.701538 460.420685,233.794220 
	C447.266968,234.062164 434.103607,233.809830 420.945221,233.912781 
	C409.419220,234.002930 411.023895,231.992844 410.593323,244.293091 
	C410.416504,249.344177 412.364716,250.583084 416.986206,250.383942 
	C424.046539,250.079742 431.129669,250.304138 439.196014,250.304138 
	C430.644653,262.500824 423.287384,274.197113 414.672180,284.878845 
	C408.447418,292.596710 407.286682,300.814758 407.847137,309.982666 
	C408.086670,313.901245 409.616272,314.372101 412.988190,312.968140 
	C417.261230,311.188995 421.723602,309.864716 426.938019,308.186340 
M508.633606,423.698334 
	C501.156525,423.803833 501.001434,423.949219 501.000458,431.232269 
	C500.996918,457.546173 500.947998,483.860229 501.017548,510.173950 
	C501.061707,526.884644 498.983002,524.571350 515.643188,524.708252 
	C522.096008,524.761292 522.297302,524.505981 522.298889,517.900146 
	C522.305420,490.753510 522.383911,463.606506 522.268005,436.460388 
	C522.207275,422.240784 524.601196,423.813019 508.633606,423.698334 
M436.196655,357.831268 
	C435.657379,359.798187 435.118134,361.765106 434.578888,363.731995 
	C436.892334,363.734741 438.413544,363.194000 439.462280,362.169556 
	C449.634155,352.233551 453.746185,339.677582 454.623749,325.878876 
	C454.802856,323.062622 453.919922,320.484344 450.281738,319.633423 
	C436.474762,316.404083 423.280396,317.530670 410.864899,324.672363 
	C409.537781,325.435760 408.662506,326.984680 407.577637,328.169189 
	C410.489227,329.150330 412.750397,329.017822 415.012939,328.916229 
	C421.643005,328.618439 428.276947,328.045593 434.903137,328.121490 
	C441.880554,328.201416 444.056824,330.939728 442.419922,337.638153 
	C440.812958,344.213898 438.540283,350.626892 436.196655,357.831268 
M511.530823,408.729675 
	C512.194214,408.704620 512.869446,408.750977 513.519287,408.643768 
	C521.817078,407.274780 525.355408,402.176758 524.239563,393.232361 
	C523.440491,386.826447 517.464294,382.564514 510.393066,383.357635 
	C502.681610,384.222534 498.392792,389.525177 499.002075,397.441254 
	C499.495941,403.857819 503.099182,407.327728 511.530823,408.729675 
z"/>
<path fill="#FFFFFF" opacity="1.000000" stroke="none" 
	d="
M1.000000,598.468628 
	C1.995977,603.133301 3.016352,608.261963 3.983831,613.400635 
	C8.964382,639.854309 20.246832,663.528931 36.452827,684.786499 
	C49.927166,702.460938 66.656723,716.663513 85.810608,727.996399 
	C99.879158,736.320374 114.860527,742.434753 130.721741,746.219727 
	C138.263412,748.019409 146.022461,748.908081 153.841522,750.604736 
	C103.073006,751.000000 52.146008,751.000000 1.000000,751.000000 
	C1.000000,700.312622 1.000000,649.625000 1.000000,598.468628 
z"/>
<path fill="#FFFFFF" opacity="1.000000" stroke="none" 
	d="
M153.531342,1.000000 
	C148.866623,1.995981 143.737854,3.016348 138.599106,3.983850 
	C112.144943,8.964535 88.469444,20.246706 67.212326,36.453972 
	C49.538677,49.929058 35.333988,66.657097 24.003012,85.813126 
	C15.680553,99.882988 9.562565,114.863228 5.777300,130.724899 
	C3.977925,138.264954 3.091322,146.022858 1.395614,153.841034 
	C1.000000,103.073006 1.000000,52.146008 1.000000,1.000000 
	C51.687351,1.000000 102.375015,1.000000 153.531342,1.000000 
z"/>
<path fill="#FFFFFF" opacity="1.000000" stroke="none" 
	d="
M598.468628,751.000000 
	C603.133362,750.004028 608.262085,748.983643 613.400818,748.016174 
	C639.854980,743.035522 663.530579,731.753357 684.787659,715.546082 
	C702.461365,702.071045 716.665955,685.343018 727.996948,666.187012 
	C736.319458,652.117065 742.437195,637.136780 746.222595,621.275146 
	C748.022034,613.735107 748.908630,605.977112 750.604370,598.158936 
	C751.000000,648.927002 751.000000,699.854004 751.000000,751.000000 
	C700.312622,751.000000 649.625000,751.000000 598.468628,751.000000 
z"/>
<path fill="#FFFFFF" opacity="1.000000" stroke="none" 
	d="
M751.000000,153.531342 
	C750.004089,148.866638 748.983643,143.737869 748.016235,138.599136 
	C743.035461,112.144989 731.753296,88.469551 715.546082,67.212425 
	C702.071045,49.538696 685.342896,35.334076 666.186951,24.003006 
	C652.117126,15.680495 637.136841,9.562583 621.275146,5.777373 
	C613.735046,3.978004 605.977173,3.091329 598.158936,1.395606 
	C648.927002,1.000000 699.854004,1.000000 751.000000,1.000000 
	C751.000000,51.687351 751.000000,102.375015 751.000000,153.531342 
z"/>
<path fill="#FCFCFC" opacity="1.000000" stroke="none" 
	d="
M202.118439,420.746277 
	C209.237015,422.505890 213.806351,426.895233 216.527145,431.548004 
	C226.586044,427.748291 236.061661,423.332855 246.010803,420.721924 
	C252.051346,419.136688 259.006653,419.350189 265.228912,420.499451 
	C277.772003,422.816071 284.850006,432.667603 284.958710,446.832916 
	C285.133911,469.664032 284.947327,492.497803 285.065765,515.329651 
	C285.084686,518.977783 283.590210,520.543518 280.165222,520.701721 
	C279.998840,520.709473 279.832458,520.720398 279.666016,520.721191 
	C262.315704,520.802979 265.121735,521.671143 265.023224,507.052734 
	C264.900818,488.887573 265.020660,470.720886 264.984650,452.554993 
	C264.959473,439.858459 259.398499,433.866028 246.914444,435.380585 
	C238.697266,436.377472 230.758575,439.855713 222.794312,442.519196 
	C221.782852,442.857483 220.779465,444.992340 220.773132,446.299713 
	C220.664825,468.631134 220.723816,490.963379 220.723511,513.295410 
	C220.723434,520.057129 220.082352,520.674072 213.323715,520.728210 
	C197.959717,520.851379 201.035126,520.693909 200.925323,508.521637 
	C200.765976,490.857056 200.886505,473.190002 200.880920,455.523987 
	C200.880447,454.025055 200.910370,452.519562 200.789032,451.028259 
	C199.835999,439.316833 194.653336,434.049957 183.039261,435.340210 
	C175.119080,436.220093 167.443054,439.369324 159.684540,441.596863 
	C156.666260,442.463409 156.024918,444.658417 156.043411,447.710754 
	C156.177628,469.875793 156.120850,492.041992 156.111893,514.207825 
	C156.109543,520.041687 155.499100,520.693726 149.489990,520.714905 
	C134.677200,520.767090 136.310623,521.589417 136.284637,507.603363 
	C136.236343,481.604431 136.260071,455.605347 136.278229,429.606323 
	C136.282883,422.930511 136.906693,422.317474 143.233963,422.270844 
	C152.248016,422.204437 152.248016,422.204437 155.286285,431.736115 
	C169.569260,422.915009 184.540375,416.927734 202.118439,420.746277 
z"/>
<path fill="#FCFCFC" opacity="1.000000" stroke="none" 
	d="
M270.998505,240.894958 
	C271.513580,241.750046 271.909546,242.272354 272.334198,242.832489 
	C279.874756,230.838913 290.567505,226.578156 301.804169,231.135590 
	C311.511383,235.072678 314.689240,243.114273 314.687836,252.769440 
	C314.685028,271.921936 314.537628,291.075958 314.160919,310.223633 
	C314.135620,311.507874 311.802795,313.642181 310.343445,313.830109 
	C306.409180,314.336761 302.363434,313.901306 298.368530,314.036041 
	C294.887115,314.153412 293.796844,312.625275 293.826965,309.226196 
	C293.961395,294.062958 293.895721,278.897858 293.873627,263.733459 
	C293.870483,261.570740 293.881805,259.384399 293.586060,257.250610 
	C292.988434,252.938080 291.054047,249.687393 286.235535,249.101883 
	C281.558136,248.533539 276.992920,250.981354 275.563721,255.479767 
	C274.624084,258.437256 274.206268,261.671661 274.176331,264.788055 
	C274.037140,279.284607 273.987366,293.784973 274.191650,308.279938 
	C274.253540,312.669678 272.702393,314.357544 268.377502,314.052032 
	C265.061218,313.817780 261.705597,313.846771 258.384766,314.046295 
	C254.413391,314.284882 253.173264,312.541809 253.212036,308.707581 
	C253.360245,294.044586 253.327530,279.378815 253.227295,264.714996 
	C253.205887,261.583618 252.906952,258.391083 252.220016,255.342987 
	C251.329514,251.391663 248.777786,249.131485 244.443832,248.961090 
	C240.058945,248.788712 236.712509,250.490021 235.448761,254.554916 
	C234.334824,258.137939 233.850906,262.038971 233.801407,265.808960 
	C233.617661,279.804443 233.574615,293.806458 233.811661,307.800385 
	C233.894241,312.675659 232.095932,314.143097 227.363388,314.092621 
	C212.886917,313.938141 212.885284,314.090851 212.885284,299.726379 
	C212.885284,278.729492 212.976517,257.731842 212.806366,236.736328 
	C212.773346,232.661957 213.893265,230.715729 218.148270,231.252731 
	C219.131653,231.376831 220.147171,231.296951 221.144928,231.248947 
	C232.009262,230.726288 232.009094,230.722931 233.125092,242.322052 
	C237.257889,234.314987 243.054398,229.944687 251.698700,229.628021 
	C260.499695,229.305603 266.699249,233.035065 270.998505,240.894958 
z"/>
<path fill="#FDFDFD" opacity="1.000000" stroke="none" 
	d="
M376.661377,424.662262 
	C381.797363,424.127289 386.617371,423.622009 391.386017,423.925049 
	C392.706329,424.008972 394.944519,426.487671 394.954224,427.880188 
	C395.161682,457.709900 395.083862,487.541473 395.151276,517.372498 
	C395.158630,520.622742 393.662262,521.903381 390.675049,521.998291 
	C390.508514,522.003601 390.341400,521.994751 390.175201,522.004456 
	C379.708557,522.612671 379.708557,522.612793 376.789124,512.479614 
	C370.612213,515.459961 364.639954,519.107788 358.168457,521.241211 
	C352.113220,523.237366 345.546295,524.434631 339.173981,524.572693 
	C321.003174,524.966492 310.567444,514.725891 310.341248,496.415924 
	C310.063354,473.921021 310.320801,451.419861 310.230652,428.921875 
	C310.214996,425.014069 311.840820,423.597107 315.633392,423.657959 
	C332.241638,423.924377 329.889038,421.682800 329.981384,437.423218 
	C330.081116,454.421387 330.153168,471.422272 329.965210,488.418945 
	C329.743042,508.514252 340.482513,510.813873 354.869080,508.335266 
	C360.629242,507.342865 366.032532,504.309509 371.617371,502.257202 
	C374.877777,501.059052 375.813385,498.890686 375.783722,495.391174 
	C375.602905,474.060913 375.675568,452.728363 375.721069,431.396667 
	C375.725616,429.263092 376.115143,427.130310 376.661377,424.662262 
z"/>
<path fill="#FBFBFB" opacity="1.000000" stroke="none" 
	d="
M562.329407,231.269562 
	C563.455200,231.264816 564.124023,231.297394 564.787048,231.249939 
	C575.710999,230.468231 575.706909,230.466187 576.334534,241.262695 
	C576.367615,241.831635 576.563904,242.391098 576.911072,244.017502 
	C577.934509,242.165207 578.434570,241.207428 578.981995,240.277481 
	C584.203491,231.406937 592.605774,227.885361 603.355225,230.051849 
	C612.020935,231.798401 618.596741,238.549622 618.970825,248.325012 
	C619.759583,268.934540 619.774414,289.575897 619.847534,310.205109 
	C619.851929,311.463226 617.686646,313.689758 616.370178,313.818237 
	C611.750732,314.268982 607.060852,314.012085 602.397827,313.998047 
	C598.833618,313.987305 598.652344,311.603394 598.662048,308.863434 
	C598.714661,294.041443 598.720459,279.219025 598.653992,264.397156 
	C598.642883,261.922028 598.353516,259.420990 597.918274,256.980865 
	C597.165833,252.762421 595.246521,249.468338 590.461975,248.885544 
	C585.707458,248.306412 581.992188,250.357422 580.417969,254.563400 
	C578.881653,258.668152 577.952881,263.218567 577.847046,267.599670 
	C577.525330,280.915222 577.742859,294.243500 577.724792,307.566772 
	C577.716614,313.572479 577.266968,313.987396 571.109131,314.005188 
	C567.778320,314.014801 564.443665,313.907257 561.117737,314.034546 
	C557.793030,314.161804 556.229614,312.886353 556.238281,309.395966 
	C556.299255,284.748016 556.320862,260.099640 556.223999,235.451904 
	C556.206848,231.093246 558.876709,231.155304 562.329407,231.269562 
z"/>
<path fill="#FDFDFD" opacity="1.000000" stroke="none" 
	d="
M383.814514,235.072723 
	C390.286621,239.486862 392.822052,245.626877 392.964233,252.793701 
	C393.162445,262.783966 393.238525,272.782959 393.047394,282.772064 
	C392.943848,288.183655 394.120728,292.962036 397.666016,297.093231 
	C399.946655,299.750854 399.873779,301.996979 396.816284,304.162964 
	C394.245117,305.984406 391.687561,307.956543 389.586700,310.280304 
	C386.237579,313.984772 383.374084,313.280243 380.477905,309.973694 
	C378.640717,307.876160 376.900482,305.693665 374.803925,303.173157 
	C368.394348,309.655884 361.053131,313.516235 351.773865,313.378967 
	C340.557129,313.213013 333.445587,309.452881 329.892303,300.998230 
	C325.897339,291.492462 328.019867,279.804932 334.998932,272.707062 
	C341.885864,265.702911 350.930664,264.238190 360.030426,262.962311 
	C363.800140,262.433777 367.599762,262.118591 371.356079,261.709625 
	C373.287750,252.158600 370.791809,246.992340 363.705902,245.742981 
	C357.685913,244.681549 352.152893,247.502426 350.277496,253.311066 
	C349.183899,256.698212 347.458069,257.296753 344.368622,256.762115 
	C341.262787,256.224609 338.099792,255.901932 334.949615,255.763962 
	C330.608704,255.573837 330.080078,253.165192 331.096069,249.713165 
	C332.960022,243.379898 336.511322,238.151215 342.413757,235.142853 
	C355.989960,228.223358 369.758698,227.758270 383.814514,235.072723 
M368.854187,273.549133 
	C364.132019,274.907684 359.049957,275.578766 354.785370,277.811340 
	C350.196503,280.213623 348.722809,286.775726 350.384338,292.072144 
	C351.591461,295.920105 354.178589,298.486511 358.277069,298.638184 
	C363.699524,298.838837 367.992279,295.960236 369.498657,291.087921 
	C371.126465,285.822815 371.231232,280.078918 371.837036,274.526062 
	C371.872009,274.205627 370.438782,273.725037 368.854187,273.549133 
z"/>
<path fill="#FDFDFD" opacity="1.000000" stroke="none" 
	d="
M171.908264,309.039337 
	C164.423447,313.873230 156.445908,314.162933 148.505280,312.732300 
	C140.490768,311.288330 135.059692,306.188293 133.136871,298.181488 
	C130.737427,288.189911 132.337662,279.015656 140.248718,271.707306 
	C146.844894,265.613678 155.250351,264.221405 163.669861,263.007690 
	C167.599808,262.441193 171.568054,262.140320 175.486557,261.722504 
	C177.525146,253.850998 175.439285,247.925125 169.944580,246.169113 
	C163.409805,244.080734 155.650024,247.280548 153.946060,254.124298 
	C153.652313,255.304123 151.435486,256.780762 150.107422,256.780304 
	C146.307785,256.779053 142.515350,256.002747 138.706940,255.692261 
	C134.661911,255.362457 134.236649,253.099945 135.228012,249.824707 
	C138.265579,239.789291 145.321808,234.193924 155.162903,231.602386 
	C164.397079,229.170639 173.568680,229.146927 182.596680,232.443542 
	C192.192551,235.947495 196.964691,242.642090 197.086121,252.869247 
	C197.202698,262.687958 197.222916,272.510834 197.070053,282.328552 
	C196.983643,287.878967 198.211197,292.887054 201.859268,297.134644 
	C204.145889,299.797058 204.235870,301.918793 201.128815,304.122833 
	C198.290146,306.136475 195.604767,308.425751 193.126190,310.871552 
	C190.391525,313.570068 187.985748,313.498779 185.517914,310.737671 
	C183.425797,308.396912 181.385605,306.009735 179.135162,303.428284 
	C176.891083,305.193604 174.562607,307.025330 171.908264,309.039337 
M169.073502,296.740387 
	C177.124008,290.584991 176.271973,281.990417 176.018082,272.149811 
	C169.881775,274.042114 164.224884,274.961121 159.411163,277.487000 
	C153.815796,280.423035 152.434860,288.584778 155.503372,294.207550 
	C157.940399,298.673157 162.352371,299.655151 169.073502,296.740387 
z"/>
<path fill="#FCFCFC" opacity="1.000000" stroke="none" 
	d="
M443.705505,419.784424 
	C454.198120,419.130920 464.034637,420.074829 473.526367,423.691895 
	C478.026520,425.406830 481.149506,433.600800 478.105103,437.192505 
	C477.113373,438.362579 473.977386,438.069946 471.872955,437.880768 
	C462.664917,437.052826 453.464081,435.166107 444.282562,435.289856 
	C434.561554,435.420898 429.233124,442.898529 432.210052,450.936462 
	C433.196655,453.600464 435.763519,456.327576 438.319305,457.633209 
	C444.502777,460.791992 451.099731,463.143860 457.541260,465.793732 
	C460.148071,466.866119 462.816895,467.791901 465.401337,468.913757 
	C479.949341,475.228729 484.994293,483.048798 484.080017,497.763031 
	C483.364716,509.274780 474.700470,519.358337 461.578003,522.720032 
	C446.134064,526.676392 430.893829,525.101624 416.128784,519.181824 
	C412.405396,517.689026 409.992859,508.057434 412.820068,505.454163 
	C413.803101,504.548950 416.157715,504.716217 417.782501,504.995483 
	C425.777466,506.369690 433.686493,508.451538 441.728912,509.265686 
	C446.711426,509.770111 452.020844,509.030914 456.923340,507.807343 
	C462.342133,506.454987 465.452118,502.358551 465.968170,496.557831 
	C466.482483,490.776550 463.793732,486.864990 458.703156,484.732819 
	C450.597565,481.337738 442.365143,478.244843 434.179077,475.042755 
	C417.928833,468.686340 410.910950,457.218231 413.922546,441.830841 
	C415.553101,433.499786 420.770477,427.707001 428.083496,424.224640 
	C432.777954,421.989258 438.180450,421.240875 443.705505,419.784424 
z"/>
<path fill="#FDFDFD" opacity="1.000000" stroke="none" 
	d="
M505.503113,313.676666 
	C488.260254,310.514557 477.917328,298.460632 476.072327,279.141266 
	C475.018890,268.110077 475.769592,257.196564 481.046509,247.067993 
	C486.644318,236.323502 495.302643,230.263565 507.571259,229.700790 
	C520.311646,229.116364 530.686584,233.793304 536.805420,245.033813 
	C546.071777,262.056305 546.572449,279.827179 537.454407,297.061432 
	C530.934753,309.384399 519.928467,314.759247 505.503113,313.676666 
M521.021362,281.401184 
	C520.377380,271.691071 520.026245,261.948578 518.957642,252.285416 
	C518.471741,247.891678 514.944763,245.514648 510.496429,245.146606 
	C506.263702,244.796402 503.036865,246.639297 501.084656,250.384247 
	C500.176880,252.125656 499.166168,254.069153 499.102356,255.951538 
	C498.788177,265.221039 498.579407,274.504852 498.773529,283.774384 
	C498.833832,286.652893 499.994354,289.623047 501.156403,292.334717 
	C502.602631,295.709503 505.118042,297.958496 509.175476,298.034760 
	C513.312500,298.112488 516.430725,296.307037 517.998047,292.719788 
	C519.434021,289.433197 520.032043,285.780579 521.021362,281.401184 
z"/>
<path fill="#FCFCFC" opacity="1.000000" stroke="none" 
	d="
M320.397278,354.870178 
	C357.052979,355.945312 391.964447,349.773468 425.725983,336.719360 
	C427.732727,335.943390 431.686249,336.246094 432.660522,337.571259 
	C434.752106,340.416046 431.634003,342.227417 429.454681,343.690155 
	C408.682800,357.631470 385.577087,365.726562 361.117981,369.800812 
	C314.191132,377.617554 269.766998,370.196625 228.581345,346.014618 
	C219.593781,340.737610 211.407928,334.073975 203.007141,327.841003 
	C201.698349,326.869965 201.218628,324.781525 200.355530,323.209778 
	C202.124100,323.309479 204.204865,322.831940 205.614944,323.594513 
	C231.559448,337.625824 259.137817,346.861511 288.207123,351.496613 
	C298.692688,353.168549 309.349152,353.768585 320.397278,354.870178 
z"/>
<path fill="#FDFDFD" opacity="1.000000" stroke="none" 
	d="
M579.134155,438.914490 
	C571.978210,442.325806 568.142151,448.057556 566.362427,455.074585 
	C563.796143,465.193176 563.595581,475.512146 565.574280,485.751190 
	C568.929443,503.112640 580.497681,509.305023 598.802612,508.447601 
	C604.388123,508.185944 609.940857,506.675812 615.445557,505.453430 
	C618.596008,504.753876 619.722107,505.927582 620.018982,508.851837 
	C620.964661,518.168823 620.079041,519.618958 610.894470,522.288879 
	C599.113159,525.713745 587.193115,525.736267 575.417419,522.588745 
	C560.583740,518.623840 550.823120,508.969269 546.563293,494.262024 
	C542.304199,479.557495 542.154724,464.655121 546.895752,450.011505 
	C552.810974,431.741333 566.093872,422.239258 584.731506,420.027130 
	C594.513123,418.866150 604.302307,419.311584 613.732300,422.780457 
	C618.352722,424.480072 621.667542,433.361084 618.547729,437.141937 
	C617.581177,438.313202 614.280396,438.278595 612.307922,437.776398 
	C603.112305,435.435364 593.930115,434.906219 584.658630,437.023163 
	C582.894287,437.425995 581.212158,438.188751 579.134155,438.914490 
z"/>
<path fill="#FDFDFD" opacity="1.000000" stroke="none" 
	d="
M426.521179,308.265320 
	C421.723602,309.864716 417.261230,311.188995 412.988190,312.968140 
	C409.616272,314.372101 408.086670,313.901245 407.847137,309.982666 
	C407.286682,300.814758 408.447418,292.596710 414.672180,284.878845 
	C423.287384,274.197113 430.644653,262.500824 439.196014,250.304138 
	C431.129669,250.304138 424.046539,250.079742 416.986206,250.383942 
	C412.364716,250.583084 410.416504,249.344177 410.593323,244.293091 
	C411.023895,231.992844 409.419220,234.002930 420.945221,233.912781 
	C434.103607,233.809830 447.266968,234.062164 460.420685,233.794220 
	C464.970795,233.701538 465.984589,235.459854 466.127960,239.627090 
	C466.309479,244.904480 464.906860,249.228546 461.792908,253.482269 
	C453.385162,264.967407 445.304565,276.692047 437.505402,287.739197 
	C445.490723,289.584412 453.348663,291.261536 461.127106,293.249634 
	C465.785889,294.440430 467.489594,297.643158 467.403290,302.578644 
	C467.198364,314.300964 467.428528,314.243835 456.416595,310.453033 
	C446.807007,307.145020 436.965820,306.319366 426.521179,308.265320 
z"/>
<path fill="#FEFEFE" opacity="1.000000" stroke="none" 
	d="
M509.113892,423.698303 
	C524.601196,423.813019 522.207275,422.240784 522.268005,436.460388 
	C522.383911,463.606506 522.305420,490.753510 522.298889,517.900146 
	C522.297302,524.505981 522.096008,524.761292 515.643188,524.708252 
	C498.983002,524.571350 501.061707,526.884644 501.017548,510.173950 
	C500.947998,483.860229 500.996918,457.546173 501.000458,431.232269 
	C501.001434,423.949219 501.156525,423.803833 509.113892,423.698303 
z"/>
<path fill="#FBFBFB" opacity="1.000000" stroke="none" 
	d="
M436.378235,357.471313 
	C438.540283,350.626892 440.812958,344.213898 442.419922,337.638153 
	C444.056824,330.939728 441.880554,328.201416 434.903137,328.121490 
	C428.276947,328.045593 421.643005,328.618439 415.012939,328.916229 
	C412.750397,329.017822 410.489227,329.150330 407.577637,328.169189 
	C408.662506,326.984680 409.537781,325.435760 410.864899,324.672363 
	C423.280396,317.530670 436.474762,316.404083 450.281738,319.633423 
	C453.919922,320.484344 454.802856,323.062622 454.623749,325.878876 
	C453.746185,339.677582 449.634155,352.233551 439.462280,362.169556 
	C438.413544,363.194000 436.892334,363.734741 434.578888,363.731995 
	C435.118134,361.765106 435.657379,359.798187 436.378235,357.471313 
z"/>
<path fill="#FBFBFB" opacity="1.000000" stroke="none" 
	d="
M511.123596,408.725891 
	C503.099182,407.327728 499.495941,403.857819 499.002075,397.441254 
	C498.392792,389.525177 502.681610,384.222534 510.393066,383.357635 
	C517.464294,382.564514 523.440491,386.826447 524.239563,393.232361 
	C525.355408,402.176758 521.817078,407.274780 513.519287,408.643768 
	C512.869446,408.750977 512.194214,408.704620 511.123596,408.725891 
z"/>
<path fill="#1B1E1F" opacity="1.000000" stroke="none" 
	d="
M369.271515,273.434052 
	C370.438782,273.725037 371.872009,274.205627 371.837036,274.526062 
	C371.231232,280.078918 371.126465,285.822815 369.498657,291.087921 
	C367.992279,295.960236 363.699524,298.838837 358.277069,298.638184 
	C354.178589,298.486511 351.591461,295.920105 350.384338,292.072144 
	C348.722809,286.775726 350.196503,280.213623 354.785370,277.811340 
	C359.049957,275.578766 364.132019,274.907684 369.271515,273.434052 
z"/>
<path fill="#1A1D1E" opacity="1.000000" stroke="none" 
	d="
M168.739136,296.909760 
	C162.352371,299.655151 157.940399,298.673157 155.503372,294.207550 
	C152.434860,288.584778 153.815796,280.423035 159.411163,277.487000 
	C164.224884,274.961121 169.881775,274.042114 176.018082,272.149811 
	C176.271973,281.990417 177.124008,290.584991 168.739136,296.909760 
z"/>
<path fill="#181B1C" opacity="1.000000" stroke="none" 
	d="
M521.010315,281.845215 
	C520.032043,285.780579 519.434021,289.433197 517.998047,292.719788 
	C516.430725,296.307037 513.312500,298.112488 509.175476,298.034760 
	C505.118042,297.958496 502.602631,295.709503 501.156403,292.334717 
	C499.994354,289.623047 498.833832,286.652893 498.773529,283.774384 
	C498.579407,274.504852 498.788177,265.221039 499.102356,255.951538 
	C499.166168,254.069153 500.176880,252.125656 501.084656,250.384247 
	C503.036865,246.639297 506.263702,244.796402 510.496429,245.146606 
	C514.944763,245.514648 518.471741,247.891678 518.957642,252.285416 
	C520.026245,261.948578 520.377380,271.691071 521.010315,281.845215 
z"/>
</svg>