<?xml version="1.0" encoding="UTF-8" standalone="no"?>
<!DOCTYPE svg PUBLIC "-//W3C//DTD SVG 1.1//EN" "http://www.w3.org/Graphics/SVG/1.1/DTD/svg11.dtd">
<svg width="100%" height="100%" viewBox="0 0 834 834" version="1.1" xmlns="http://www.w3.org/2000/svg" xmlns:xlink="http://www.w3.org/1999/xlink" xml:space="preserve" xmlns:serif="http://www.serif.com/" style="fill-rule:evenodd;clip-rule:evenodd;stroke-linejoin:round;stroke-miterlimit:2;">
    <g transform="matrix(8.33333,0,0,8.33333,0,0)">
        <g id="Layer-1" serif:id="Layer 1">
            <g id="path853" transform="matrix(1.22653,0,0,1.22653,-11.3265,-11.3265)">
                <path d="M36.18,26.127C29.292,27.637 27.014,31.289 26.127,36.18L26.127,63.82C28.573,71.998 32.424,72.685 36.18,73.873L63.82,73.873C69.832,72.651 72.336,68.622 73.873,63.82L73.873,36.18C72.478,29.439 68.578,27.039 63.82,26.127L36.18,26.127ZM65.842,30.377C65.842,30.377 65.843,30.377 65.843,30.377C67.975,30.377 69.729,32.13 69.729,34.262C69.729,34.262 69.729,34.263 69.729,34.263C69.729,36.395 67.975,38.149 65.843,38.149C65.843,38.149 65.842,38.149 65.842,38.149C63.71,38.149 61.956,36.395 61.956,34.263C61.956,34.263 61.956,34.262 61.956,34.262C61.957,32.131 63.71,30.377 65.842,30.377ZM50.067,34.381C50.067,34.381 50.067,34.381 50.068,34.381C58.607,34.381 65.634,41.408 65.634,49.947C65.634,49.948 65.634,49.948 65.634,49.948C65.633,58.487 58.606,65.514 50.067,65.513C41.528,65.513 34.502,58.487 34.502,49.948C34.501,41.409 41.528,34.382 50.067,34.381Z" style="fill:rgb(174,104,138);fill-rule:nonzero;"/>
            </g>
            <g id="path849" transform="matrix(1.22653,0,0,1.22653,-11.3265,-11.3265)">
                <path d="M26.399,9.235C14.637,11.813 10.749,18.047 9.235,26.399L9.235,73.601C13.411,87.565 19.985,88.738 26.399,90.765L73.601,90.765C83.866,88.679 88.142,81.801 90.765,73.601L90.765,26.399C88.384,14.889 81.725,10.791 73.601,9.235L26.399,9.235ZM33.253,21.074L66.747,21.074C72.512,22.178 77.236,25.086 78.926,33.253L78.926,66.747C77.065,72.565 74.031,77.446 66.747,78.926L33.253,78.926C28.702,77.487 24.037,76.656 21.074,66.747L21.074,33.253C22.148,27.327 24.907,22.903 33.253,21.074Z" style="fill:rgb(174,104,138);fill-rule:nonzero;"/>
            </g>
            <g id="path855" transform="matrix(1.22653,0,0,1.22653,-11.3265,-11.3265)">
                <circle cx="50.068" cy="49.947" r="9.907" style="fill:rgb(174,104,138);"/>
            </g>
        </g>
    </g>
</svg>
