<?xml version="1.0" encoding="UTF-8" standalone="no"?>
<!DOCTYPE svg PUBLIC "-//W3C//DTD SVG 1.1//EN" "http://www.w3.org/Graphics/SVG/1.1/DTD/svg11.dtd">
<svg width="100%" height="100%" viewBox="0 0 834 834" version="1.1" xmlns="http://www.w3.org/2000/svg" xmlns:xlink="http://www.w3.org/1999/xlink" xml:space="preserve" xmlns:serif="http://www.serif.com/" style="fill-rule:evenodd;clip-rule:evenodd;stroke-linejoin:round;stroke-miterlimit:2;">
    <g transform="matrix(1.18129,0,0,1.0986,0.556829,-79.0589)">
        <path d="M651.939,290.113C651.939,201.187 584.797,128.99 502.095,128.99L202.407,128.99C119.706,128.99 52.563,201.187 52.563,290.113L52.563,612.358C52.563,701.284 119.706,773.481 202.407,773.481L502.095,773.481C584.797,773.481 651.939,701.284 651.939,612.358L651.939,290.113Z" style="fill:rgb(255,84,25);"/>
    </g>
    <g transform="matrix(0.849642,0,0,0.849642,62.6493,62.6493)">
        <path d="M129.252,530.797C129.656,531.201 130.31,530.364 130.313,529.925C130.426,512.907 130.313,445.936 130.313,428.945C130.313,428.623 130.304,428.339 130.124,428.272C129.944,428.204 129.92,428.157 129.233,428.541C124.367,431.26 104.705,444.334 104.705,478.125C104.705,511.959 125.112,526.657 129.252,530.797Z" style="fill:white;"/>
    </g>
    <g transform="matrix(0.849642,0,0,0.849642,62.6493,62.6493)">
        <path d="M156.06,543.389C161.288,548.998 170.264,550.926 181.717,548.436C182.055,548.362 182.739,547.692 182.741,546.729C182.773,533.385 182.998,433.472 182.738,412.003C182.727,411.158 181.625,410.124 181.065,410.099C173.14,409.747 164.678,410.275 157.415,413.803C156.982,414.013 156.137,415.005 156.129,415.796C155.903,437.393 156.06,543.389 156.06,543.389Z" style="fill:white;"/>
    </g>
    <g transform="matrix(0.849642,0,0,0.849642,62.6493,62.6493)">
        <path d="M208.174,548.204L235.163,548.669C235.163,548.669 235.496,405.242 235.232,376.544C235.227,375.993 234.127,375.934 233.58,376.482C225.467,384.632 218.369,396.167 214.56,418.665C214.496,419.046 213.929,419.705 213.395,419.816C212.473,420.007 209.936,419.635 209.029,419.816C208.529,419.916 207.955,420.392 207.952,420.902C207.81,442.3 208.174,548.204 208.174,548.204Z" style="fill:white;"/>
    </g>
    <g transform="matrix(0.849642,0,0,0.849642,62.6493,62.6493)">
        <path d="M260.978,546.786C260.979,547.715 261.597,548.17 262.226,548.204C266.604,548.44 282.853,548.507 287.247,548.204C287.999,548.152 288.589,547.575 288.59,546.386C288.608,527.893 288.758,373.871 288.588,341.172C288.584,340.477 287.872,339.437 287.502,339.392C280.61,338.549 270.959,342.893 262.389,348.711C261.892,349.049 260.918,350.483 260.911,351.55C260.689,382.981 260.949,530.722 260.978,546.786Z" style="fill:white;"/>
    </g>
    <g transform="matrix(0.849642,0,0,0.849642,62.6493,62.6493)">
        <path d="M313.475,548.204L339.548,548.204L339.548,332.619C330.994,330.052 322.299,329.322 313.335,332.084L313.475,548.204Z" style="fill:white;"/>
    </g>
    <g transform="matrix(0.849642,0,0,0.849642,62.6493,62.6493)">
        <path d="M352.387,548.204L391.973,548.204L391.973,332.084C386.93,335.717 382.538,340.49 379.134,346.993C368.177,339.624 358.835,334.629 352.387,336.689L352.387,548.204Z" style="fill:white;"/>
    </g>
    <g transform="matrix(0.849642,0,0,0.849642,62.6493,62.6493)">
        <path d="M403.812,548.204L403.812,318.71C420.1,301.292 442.22,290.041 464.994,286.613C489.278,282.958 524.051,284.255 549.516,296.777C564.09,303.944 579.167,313.536 591.608,326.247C609.99,345.028 621.09,370.519 626.014,401.092C646.342,394.157 669.969,394.673 686.998,402.697C704.027,410.722 722.929,430.693 728.189,449.238C733.45,467.783 731.221,497.484 718.56,513.967C705.9,530.45 683.477,547.624 652.226,548.134L403.812,548.204Z" style="fill:white;"/>
    </g>
</svg>
