<?xml version="1.0" encoding="UTF-8" standalone="no"?>
<!DOCTYPE svg PUBLIC "-//W3C//DTD SVG 1.1//EN" "http://www.w3.org/Graphics/SVG/1.1/DTD/svg11.dtd">
<svg width="100%" height="100%" viewBox="0 0 800 800" version="1.1" xmlns="http://www.w3.org/2000/svg" xmlns:xlink="http://www.w3.org/1999/xlink" xml:space="preserve" xmlns:serif="http://www.serif.com/" style="fill-rule:evenodd;clip-rule:evenodd;stroke-linejoin:round;stroke-miterlimit:2;">
    <g transform="matrix(1.35467,0,0,2.02105,-2.84217e-14,5.68434e-14)">
        <rect x="0" y="0" width="590.55" height="395.833"/>
    </g>
    <g transform="matrix(4.16667,0,0,4.16667,104.167,202.083)">
        <path d="M94.489,24.13L70.867,47.754L47.245,24.13L70.867,0.508L94.489,24.13Z" style="fill:white;fill-rule:nonzero;"/>
    </g>
    <g transform="matrix(4.16667,0,0,4.16667,104.167,202.083)">
        <path d="M94.489,71.378L70.867,95L47.245,71.378L70.867,47.754L94.489,71.378Z" style="fill:white;fill-rule:nonzero;"/>
    </g>
    <g transform="matrix(4.16667,0,0,4.16667,104.167,202.083)">
        <path d="M47.245,24.131L23.622,47.755L0,24.131L23.622,0.509L47.245,24.131Z" style="fill:white;fill-rule:nonzero;"/>
    </g>
    <g transform="matrix(4.16667,0,0,4.16667,104.167,202.083)">
        <path d="M141.732,24.131L118.11,47.755L94.487,24.131L118.11,0.509L141.732,24.131Z" style="fill:white;fill-rule:nonzero;"/>
    </g>
</svg>
