<?xml version="1.0" encoding="UTF-8" standalone="no"?>
<!DOCTYPE svg PUBLIC "-//W3C//DTD SVG 1.1//EN" "http://www.w3.org/Graphics/SVG/1.1/DTD/svg11.dtd">
<svg width="100%" height="100%" viewBox="0 0 834 834" version="1.1" xmlns="http://www.w3.org/2000/svg" xmlns:xlink="http://www.w3.org/1999/xlink" xml:space="preserve" xmlns:serif="http://www.serif.com/" style="fill-rule:evenodd;clip-rule:evenodd;stroke-linejoin:round;stroke-miterlimit:2;">
    <g transform="matrix(1.52275,0,0,1.52275,-219.79,-217.333)">
        <path d="M682.555,299.508C678.463,280.302 669.494,258.757 655.578,247.135C641.662,235.513 618.672,231.716 599.059,229.776C559.241,225.839 476.632,223.537 416.667,223.508C357.498,223.48 279.821,225.087 239.266,229.604C216.343,232.158 188.164,236.522 173.338,250.613C158.511,264.703 154.144,291.949 150.308,314.147C145.544,341.711 145.11,385.227 144.757,416C144.439,443.617 143.017,471.654 148.186,498.785C153.452,526.426 158.522,564.567 176.354,581.843C194.185,599.118 228.178,599.502 255.174,602.439C295.226,606.797 362.804,608.032 416.667,607.988C471.81,607.943 545.501,606.683 586.032,602.168C611.483,599.333 643.399,595.982 659.853,580.898C676.308,565.813 680.129,535.746 684.759,511.66C690.043,484.177 691.887,447.965 691.555,416C691.188,380.641 688.551,327.652 682.555,299.508Z"/>
    </g>
    <g transform="matrix(1.52275,0,0,1.52275,-219.79,-217.333)">
        <path d="M361.362,333.459L361.362,495.536L504.444,415.749L361.362,333.459Z" style="fill:white;"/>
    </g>
</svg>
